<svg xmlns="http://www.w3.org/2000/svg" viewBox="0 0 982 339.64"><defs><style>.cls-1,.cls-2{font-size:100.62px;fill:#ee4a34;stroke:#ee4a34;stroke-miterlimit:10;stroke-width:0.75px;font-family:GlacialIndifference-Regular, Glacial Indifference;}.cls-2{letter-spacing:0.1em;}</style></defs><g id="Layer_5" data-name="Layer 5"><path d="M77.35,225.62a38.82,38.82,0,0,1-16-3.35,40.66,40.66,0,0,1-13-9.18,44.81,44.81,0,0,1,0-61.09,40.66,40.66,0,0,1,13-9.18,40.07,40.07,0,0,1,34.41,1.11,41.23,41.23,0,0,1,14.07,12.19l-11.67,9.09a24.73,24.73,0,0,0-8.66-7.81,23.36,23.36,0,0,0-11.24-2.83,23,23,0,0,0-9.78,2.15,25,25,0,0,0-8.07,5.92A28.11,28.11,0,0,0,55,171.56a31.61,31.61,0,0,0,0,22,29.24,29.24,0,0,0,5.41,9,25.6,25.6,0,0,0,8.07,6.09,22.17,22.17,0,0,0,9.78,2.23,21.67,21.67,0,0,0,12.18-3.61,27.68,27.68,0,0,0,8.92-9.61l11.33,10A40.79,40.79,0,0,1,96.4,220.73,38.44,38.44,0,0,1,77.35,225.62Z"/><path d="M143.59,223.56H126.94V98.29h16.65l0,50.62a27.83,27.83,0,0,1,9.67-7.29A29.83,29.83,0,0,1,165,139.47a34.09,34.09,0,0,1,15.32,3.35A34.75,34.75,0,0,1,191.83,152a40.56,40.56,0,0,1,7.28,13.73,55.89,55.89,0,0,1,2.48,16.81v41H184.94v-41a36.1,36.1,0,0,0-1.63-11,29.48,29.48,0,0,0-4.46-8.92,21.93,21.93,0,0,0-6.52-5.92,15.61,15.61,0,0,0-8-2.15,19.18,19.18,0,0,0-7.21,1.46,18.36,18.36,0,0,0-6.6,4.72,25.51,25.51,0,0,0-5,8.58,37.06,37.06,0,0,0-2,12.87Z"/><path d="M297.86,141.36v82.2H283.79l-2.58-9.44a27.12,27.12,0,0,1-11,8.58,33.72,33.72,0,0,1-13.56,2.92,38.78,38.78,0,0,1-16-3.35,41,41,0,0,1-13-9.18,44.5,44.5,0,0,1,0-61.09,41,41,0,0,1,13-9.18,38.78,38.78,0,0,1,16-3.35,34,34,0,0,1,13.22,2.66,31,31,0,0,1,11.32,8.32l2.58-9.09Zm-41.19,69.5a20.78,20.78,0,0,0,9.44-2.23,24.28,24.28,0,0,0,7.73-6.09,29.82,29.82,0,0,0,5.14-9,32.87,32.87,0,0,0,0-22,29.82,29.82,0,0,0-5.14-9,24.28,24.28,0,0,0-7.73-6.09,21.07,21.07,0,0,0-18.87,0,24.28,24.28,0,0,0-7.73,6.09,29.61,29.61,0,0,0-5.14,9,32.87,32.87,0,0,0,0,22,29.61,29.61,0,0,0,5.14,9,24.28,24.28,0,0,0,7.73,6.09A20.77,20.77,0,0,0,256.67,210.86Z"/><path d="M331.15,223.56H314.5v-82.2h13.22l3.43,7.21a34.09,34.09,0,0,1,10-6.53,31.23,31.23,0,0,1,12.7-2.57,43.79,43.79,0,0,1,10.13,1.37A28.1,28.1,0,0,1,374.48,146a29.76,29.76,0,0,1,8.24,10.47q3.34,6.69,3.34,17.33v49.77H370.28V173.62a22.39,22.39,0,0,0-1.63-9,15.52,15.52,0,0,0-10.3-9.09,25.46,25.46,0,0,0-7-1,22.8,22.8,0,0,0-6.26,1,20.69,20.69,0,0,0-11.84,9.18,16.3,16.3,0,0,0-2.15,8.67Z"/><path d="M486.54,181.35q-.09-10.82-.08-18v-22h-13L470,149.43a33.1,33.1,0,0,0-11.15-7.38,43.11,43.11,0,0,0-30.72.51,38.9,38.9,0,0,0-12.53,8.49,39.7,39.7,0,0,0-11.32,28.06,40.2,40.2,0,0,0,3,15.53,41.3,41.3,0,0,0,8.32,12.87,38.47,38.47,0,0,0,28.32,11.93,35.68,35.68,0,0,0,7.21-.78,49.88,49.88,0,0,0,7.28-2.06,42.49,42.49,0,0,0,6.53-3A28.28,28.28,0,0,0,470,210v3.28A31.79,31.79,0,0,1,467.66,226a23.57,23.57,0,0,1-6.28,8.72,26,26,0,0,1-9.28,5,37.82,37.82,0,0,1-9.48,1.59v14.79a65.34,65.34,0,0,0,17.63-2.48A34.29,34.29,0,0,0,475.79,244a36.63,36.63,0,0,0,5.77-8.16,40.12,40.12,0,0,0,3.26-8.75,56.35,56.35,0,0,0,1.47-9.44c.22-3.26.34-6.6.34-10Q486.63,192.15,486.54,181.35Zm-18.8,8.75a21.62,21.62,0,0,1-5.17,7.72,21.06,21.06,0,0,1-7.75,4.63,28.8,28.8,0,0,1-9.47,1.55,23.33,23.33,0,0,1-9.47-2A25.82,25.82,0,0,1,428,196.7a24.26,24.26,0,0,1-5.25-7.9,25,25,0,0,1-1.89-9.69,24.28,24.28,0,0,1,15-22.65,24.11,24.11,0,0,1,9.47-1.88,34,34,0,0,1,9.47,1.28,19.34,19.34,0,0,1,7.75,4.21,19.79,19.79,0,0,1,5.17,7.63,30.68,30.68,0,0,1,1.9,11.41A29,29,0,0,1,467.74,190.1Z"/><path d="M585.81,141.36v82.2H571.74l-2.57-9.44a27.22,27.22,0,0,1-11,8.58,33.71,33.71,0,0,1-13.55,2.92,38.79,38.79,0,0,1-16-3.35,41.09,41.09,0,0,1-13-9.18,44.5,44.5,0,0,1,0-61.09,41.09,41.09,0,0,1,13-9.18,38.79,38.79,0,0,1,16-3.35,33.92,33.92,0,0,1,13.21,2.66,31.13,31.13,0,0,1,11.33,8.32l2.57-9.09Zm-41.18,69.5a20.77,20.77,0,0,0,9.43-2.23,24.28,24.28,0,0,0,7.73-6.09,29.82,29.82,0,0,0,5.14-9,32.87,32.87,0,0,0,0-22,29.82,29.82,0,0,0-5.14-9,24.28,24.28,0,0,0-7.73-6.09,21.07,21.07,0,0,0-18.87,0,24.13,24.13,0,0,0-7.72,6.09,29.63,29.63,0,0,0-5.15,9,32.87,32.87,0,0,0,0,22,29.63,29.63,0,0,0,5.15,9,24.13,24.13,0,0,0,7.72,6.09A20.78,20.78,0,0,0,544.63,210.86Z"/><rect x="126.95" y="241.35" width="315.67" height="14.81"/><rect x="126.95" y="83.47" width="359.49" height="14.81"/><rect x="471.63" y="97.76" width="14.81" height="25.8"/><text class="cls-1" transform="translate(663.91 164.04)">Game</text><text class="cls-2" transform="translate(668.95 234.77)">Night</text></g></svg>