<svg xmlns="http://www.w3.org/2000/svg" viewBox="0 0 982 339.64"><defs><style>.cls-1{font-size:90.24px;fill:#ee4a34;stroke:#ee4a34;stroke-miterlimit:10;font-family:GlacialIndifference-Regular, Glacial Indifference;}</style></defs><g id="Layer_5" data-name="Layer 5"><path d="M61.13,211.79a29.1,29.1,0,0,1-12.07-2.52,30.49,30.49,0,0,1-9.77-6.91,33.44,33.44,0,0,1-9-23,33.44,33.44,0,0,1,9-23,30.49,30.49,0,0,1,9.77-6.91,30.2,30.2,0,0,1,25.88.84,31.06,31.06,0,0,1,10.58,9.16l-8.78,6.85a18.47,18.47,0,0,0-6.52-5.88,17.47,17.47,0,0,0-8.45-2.13A17.29,17.29,0,0,0,54.41,160a18.73,18.73,0,0,0-6.06,4.45,21.08,21.08,0,0,0-4.07,6.71,23.79,23.79,0,0,0,0,16.52,22,22,0,0,0,4.07,6.78A19.27,19.27,0,0,0,54.41,199a16.77,16.77,0,0,0,7.36,1.68A16.37,16.37,0,0,0,70.93,198a21,21,0,0,0,6.72-7.23l8.51,7.48a30.69,30.69,0,0,1-10.71,9.88A28.89,28.89,0,0,1,61.13,211.79Z"/><path d="M110.94,210.24H98.42V116h12.52l0,38.07a21.07,21.07,0,0,1,7.28-5.48A22.32,22.32,0,0,1,127,147a25.67,25.67,0,0,1,11.53,2.51,26.17,26.17,0,0,1,8.69,6.91,30.61,30.61,0,0,1,5.47,10.32,42.12,42.12,0,0,1,1.87,12.65v30.85H142.05V179.39a27.15,27.15,0,0,0-1.23-8.26,22.32,22.32,0,0,0-3.35-6.71,16.49,16.49,0,0,0-4.91-4.45,11.7,11.7,0,0,0-6-1.62,14.38,14.38,0,0,0-5.42,1.1,13.78,13.78,0,0,0-5,3.55,19.38,19.38,0,0,0-3.74,6.45,27.94,27.94,0,0,0-1.49,9.68Z"/><path d="M227,148.42v61.82H216.39l-1.94-7.1a20.32,20.32,0,0,1-8.26,6.45,25.32,25.32,0,0,1-10.19,2.2,29.1,29.1,0,0,1-12.07-2.52,30.88,30.88,0,0,1-9.81-6.91,33.45,33.45,0,0,1,0-45.94,30.88,30.88,0,0,1,9.81-6.91A29.1,29.1,0,0,1,196,147a25.31,25.31,0,0,1,9.93,2,23.13,23.13,0,0,1,8.52,6.26l1.94-6.84Zm-31,52.27a15.61,15.61,0,0,0,7.09-1.68,18.19,18.19,0,0,0,5.81-4.58,22.12,22.12,0,0,0,3.87-6.78,24.73,24.73,0,0,0,0-16.52,22.12,22.12,0,0,0-3.87-6.78,18.19,18.19,0,0,0-5.81-4.58,15.91,15.91,0,0,0-14.19,0,18.19,18.19,0,0,0-5.81,4.58,22.12,22.12,0,0,0-3.87,6.78,24.73,24.73,0,0,0,0,16.52,22.12,22.12,0,0,0,3.87,6.78A18.19,18.19,0,0,0,188.9,199,15.62,15.62,0,0,0,196,200.69Z"/><path d="M252,210.24H239.49V148.42h9.94l2.58,5.42a25.62,25.62,0,0,1,7.48-4.91A23.42,23.42,0,0,1,269,147a32.63,32.63,0,0,1,7.62,1,21.11,21.11,0,0,1,7.94,3.87,22.39,22.39,0,0,1,6.19,7.87q2.52,5,2.52,13v37.43H281.43V172.68a16.74,16.74,0,0,0-1.22-6.78,11.72,11.72,0,0,0-7.75-6.84,19.23,19.23,0,0,0-5.22-.71,16.85,16.85,0,0,0-4.71.78,15.34,15.34,0,0,0-5,2.51,15.73,15.73,0,0,0-3.94,4.39,12.29,12.29,0,0,0-1.61,6.52Z"/><path d="M368.87,178.49q-.06-8.13-.06-13.55V148.42H359l-2.58,6.06a25,25,0,0,0-8.39-5.55,32.51,32.51,0,0,0-23.1.39,29.23,29.23,0,0,0-15.68,15.88A29.78,29.78,0,0,0,307,176.81a30.31,30.31,0,0,0,2.26,11.68,31,31,0,0,0,6.26,9.68,28.91,28.91,0,0,0,21.3,9,27.65,27.65,0,0,0,5.42-.58,39.62,39.62,0,0,0,5.48-1.55,32.44,32.44,0,0,0,4.9-2.26,20.73,20.73,0,0,0,3.81-2.71v2.46a24.09,24.09,0,0,1-1.74,9.61,17.62,17.62,0,0,1-4.73,6.55,19.42,19.42,0,0,1-7,3.77,28.58,28.58,0,0,1-7.14,1.2v11.12a49.21,49.21,0,0,0,13.26-1.86,25.87,25.87,0,0,0,11.69-7.29,27.51,27.51,0,0,0,4.34-6.14,30,30,0,0,0,2.45-6.58,42.92,42.92,0,0,0,1.1-7.1c.18-2.45.26-5,.26-7.54Q368.94,186.62,368.87,178.49Zm-14.13,6.58a16.35,16.35,0,0,1-3.89,5.81,15.82,15.82,0,0,1-5.83,3.48,21.53,21.53,0,0,1-7.12,1.17,17.49,17.49,0,0,1-7.13-1.49,19.55,19.55,0,0,1-5.89-4,18.38,18.38,0,0,1-3.95-5.94,18.76,18.76,0,0,1-1.42-7.29,18.32,18.32,0,0,1,1.42-7.23,18.62,18.62,0,0,1,3.95-5.87,18.32,18.32,0,0,1,5.89-3.93,18.12,18.12,0,0,1,7.13-1.42,25.46,25.46,0,0,1,7.12,1,14.57,14.57,0,0,1,5.83,3.17,15,15,0,0,1,3.89,5.73,23.32,23.32,0,0,1,1.43,8.59A21.92,21.92,0,0,1,354.74,185.07Z"/><path d="M443.54,148.42v61.82H433l-1.93-7.1a20.39,20.39,0,0,1-8.26,6.45,25.4,25.4,0,0,1-10.2,2.2,29.17,29.17,0,0,1-12.07-2.52,30.84,30.84,0,0,1-9.8-6.91,33.45,33.45,0,0,1,0-45.94,30.84,30.84,0,0,1,9.8-6.91A29.16,29.16,0,0,1,412.56,147a25.36,25.36,0,0,1,9.94,2,23.3,23.3,0,0,1,8.52,6.26l1.93-6.84Zm-31,52.27a15.65,15.65,0,0,0,7.1-1.68,18.3,18.3,0,0,0,5.81-4.58,22.54,22.54,0,0,0,3.87-6.78,24.73,24.73,0,0,0,0-16.52,22.54,22.54,0,0,0-3.87-6.78,18.3,18.3,0,0,0-5.81-4.58,15.93,15.93,0,0,0-14.2,0,18.26,18.26,0,0,0-5.8,4.58,22.35,22.35,0,0,0-3.88,6.78,24.73,24.73,0,0,0,0,16.52,22.35,22.35,0,0,0,3.88,6.78,18.26,18.26,0,0,0,5.8,4.58A15.68,15.68,0,0,0,412.56,200.69Z"/><rect x="98.43" y="223.62" width="237.41" height="11.14"/><rect x="98.43" y="104.88" width="270.37" height="11.14"/><rect x="357.66" y="115.62" width="11.14" height="19.4"/><text class="cls-1" transform="translate(483.94 196.35)">Game Night</text></g></svg>