<svg xmlns="http://www.w3.org/2000/svg" viewBox="0 0 982 339.64"><defs><style>.cls-1{font-size:90px;fill:#ee4a34;stroke:#ee4a34;stroke-miterlimit:10;font-family:GlacialIndifference-Regular, Glacial Indifference;letter-spacing:0.02em;}</style></defs><g id="Layer_5" data-name="Layer 5"><path d="M273.62,168a36.13,36.13,0,0,1-14.92-3.11,37.66,37.66,0,0,1-12.08-8.54,41.67,41.67,0,0,1,0-56.82A37.82,37.82,0,0,1,258.7,91a37.28,37.28,0,0,1,32,1,38.43,38.43,0,0,1,13.09,11.33l-10.86,8.46a23,23,0,0,0-8.06-7.26,21.95,21.95,0,0,0-19.55-.64,23.29,23.29,0,0,0-7.5,5.51,25.87,25.87,0,0,0-5,8.3,29.42,29.42,0,0,0,0,20.43,27,27,0,0,0,5,8.38,23.74,23.74,0,0,0,7.5,5.66,20.66,20.66,0,0,0,9.1,2.08,20.18,20.18,0,0,0,11.33-3.36,25.74,25.74,0,0,0,8.3-8.93l10.53,9.25a37.85,37.85,0,0,1-13.24,12.21A35.64,35.64,0,0,1,273.62,168Z"/><path d="M335.23,166.08H319.75V49.57h15.48l0,47.08a26,26,0,0,1,9-6.78,27.73,27.73,0,0,1,10.91-2A31.81,31.81,0,0,1,369.35,91a32.58,32.58,0,0,1,10.75,8.54,37.78,37.78,0,0,1,6.76,12.77,51.86,51.86,0,0,1,2.31,15.64v38.15H373.69V127.93a33.67,33.67,0,0,0-1.51-10.21,27.83,27.83,0,0,0-4.15-8.3,20.48,20.48,0,0,0-6.07-5.51,14.51,14.51,0,0,0-7.42-2,17.77,17.77,0,0,0-6.7,1.35,17.12,17.12,0,0,0-6.15,4.39,24,24,0,0,0-4.63,8,34.64,34.64,0,0,0-1.83,12Z"/><path d="M478.71,89.63v76.45H465.62l-2.39-8.78a25.25,25.25,0,0,1-10.22,8A31.26,31.26,0,0,1,440.4,168a36.13,36.13,0,0,1-14.92-3.11,38.32,38.32,0,0,1-12.13-8.54,41.39,41.39,0,0,1,0-56.82A38.48,38.48,0,0,1,425.48,91a36.13,36.13,0,0,1,14.92-3.11,31.46,31.46,0,0,1,12.29,2.48,28.71,28.71,0,0,1,10.54,7.74l2.39-8.46ZM440.4,154.27a19.29,19.29,0,0,0,8.78-2.08,22.39,22.39,0,0,0,7.18-5.66,27.68,27.68,0,0,0,4.79-8.38,30.52,30.52,0,0,0,0-20.43,27.45,27.45,0,0,0-4.79-8.38,22.42,22.42,0,0,0-7.18-5.67,19.63,19.63,0,0,0-17.55,0,22.46,22.46,0,0,0-7.19,5.67,27.42,27.42,0,0,0-4.78,8.38,30.52,30.52,0,0,0,0,20.43,27.66,27.66,0,0,0,4.78,8.38,22.43,22.43,0,0,0,7.19,5.66A19.25,19.25,0,0,0,440.4,154.27Z"/><path d="M509.67,166.08H494.19V89.63h12.29l3.19,6.7a31.62,31.62,0,0,1,9.26-6.06,28.83,28.83,0,0,1,11.81-2.4,40.66,40.66,0,0,1,9.42,1.28A25.92,25.92,0,0,1,550,93.94a27.56,27.56,0,0,1,7.66,9.73q3.12,6.22,3.12,16.12v46.29H546.06V119.63a20.74,20.74,0,0,0-1.52-8.38,14.88,14.88,0,0,0-4-5.5,15,15,0,0,0-5.58-3,23.94,23.94,0,0,0-6.47-.87,21.28,21.28,0,0,0-5.82,1,19.25,19.25,0,0,0-11,8.54,15.22,15.22,0,0,0-2,8.06Z"/><path d="M654.19,126.82q-.08-10.06-.07-16.76V89.63H642l-3.2,7.5a30.83,30.83,0,0,0-10.37-6.86,40,40,0,0,0-28.57.48,35.94,35.94,0,0,0-11.65,7.89,36.81,36.81,0,0,0-10.53,26.1,37.55,37.55,0,0,0,2.78,14.44,38.49,38.49,0,0,0,7.75,12,35.77,35.77,0,0,0,26.33,11.1,34.18,34.18,0,0,0,6.71-.72,47.52,47.52,0,0,0,6.78-1.92,39.19,39.19,0,0,0,6.06-2.79,25.81,25.81,0,0,0,4.71-3.35v3a29.66,29.66,0,0,1-2.16,11.88,21.8,21.8,0,0,1-5.84,8.11,24.15,24.15,0,0,1-8.63,4.66,35.44,35.44,0,0,1-8.82,1.48v13.75a60.72,60.72,0,0,0,16.4-2.31,32,32,0,0,0,14.46-9,34.51,34.51,0,0,0,5.36-7.58,37.49,37.49,0,0,0,3-8.14,53.07,53.07,0,0,0,1.37-8.78q.31-4.55.32-9.33Q654.28,136.87,654.19,126.82ZM636.71,135a20.24,20.24,0,0,1-4.81,7.18,19.78,19.78,0,0,1-7.2,4.31,26.81,26.81,0,0,1-8.81,1.44,21.48,21.48,0,0,1-8.81-1.85,23.78,23.78,0,0,1-7.29-4.94,22.63,22.63,0,0,1-4.89-7.35,23.22,23.22,0,0,1-1.75-9,22.6,22.6,0,0,1,13.93-21.07,22.42,22.42,0,0,1,8.81-1.75,31.72,31.72,0,0,1,8.81,1.19,18.21,18.21,0,0,1,7.2,3.92,18.55,18.55,0,0,1,4.81,7.09,28.65,28.65,0,0,1,1.76,10.62A27,27,0,0,1,636.71,135Z"/><path d="M746.52,89.63v76.45H733.43L731,157.3a25.25,25.25,0,0,1-10.22,8,31.21,31.21,0,0,1-12.6,2.71,36.14,36.14,0,0,1-14.93-3.11,38.32,38.32,0,0,1-12.13-8.54,41.39,41.39,0,0,1,0-56.82A38.48,38.48,0,0,1,693.29,91a36.14,36.14,0,0,1,14.93-3.11,31.53,31.53,0,0,1,12.29,2.48A28.76,28.76,0,0,1,731,98.09l2.39-8.46Zm-38.3,64.64a19.25,19.25,0,0,0,8.77-2.08,22.54,22.54,0,0,0,7.19-5.66,27.66,27.66,0,0,0,4.78-8.38,30.52,30.52,0,0,0,0-20.43,27.42,27.42,0,0,0-4.78-8.38,22.57,22.57,0,0,0-7.19-5.67,19.63,19.63,0,0,0-17.55,0,22.42,22.42,0,0,0-7.18,5.67,27.24,27.24,0,0,0-4.79,8.38,30.52,30.52,0,0,0,0,20.43,27.48,27.48,0,0,0,4.79,8.38,22.39,22.39,0,0,0,7.18,5.66A19.26,19.26,0,0,0,708.22,154.27Z"/><rect x="319.75" y="182.63" width="293.59" height="13.78"/><rect x="319.75" y="35.79" width="334.35" height="13.78"/><rect x="640.32" y="49.08" width="13.78" height="24"/><text class="cls-1" transform="translate(248.72 281.17)">Game Night</text></g></svg>